<?xml version="1.0" encoding="UTF-8" standalone="no"?>
<!DOCTYPE svg PUBLIC "-//W3C//DTD SVG 1.0//EN" "http://www.w3.org/TR/2001/PR-SVG-20010719/DTD/svg10.dtd">
<svg width="43cm" height="23cm" viewBox="19 19 858 459" xmlns="http://www.w3.org/2000/svg" xmlns:xlink="http://www.w3.org/1999/xlink">
  <g>
    <rect style="fill: #ffffff" x="20" y="20" width="67.75" height="36"/>
    <rect style="fill: none; fill-opacity:0; stroke-width: 2; stroke: #000000" x="20" y="20" width="67.75" height="36"/>
    <text font-size="12.8" style="fill: #000000;text-anchor:middle;font-family:sans-serif;font-style:normal;font-weight:normal" x="53.875" y="42.8">
      <tspan x="53.875" y="42.8">Program</tspan>
    </text>
    <line style="fill: none; fill-opacity:0; stroke-width: 1; stroke: #000000" x1="30" y1="45.45" x2="77.75" y2="45.45"/>
  </g>
  <g>
    <rect style="fill: #ffffff" x="160" y="20" width="46.7" height="36"/>
    <rect style="fill: none; fill-opacity:0; stroke-width: 2; stroke: #000000" x="160" y="20" width="46.7" height="36"/>
    <text font-size="12.8" style="fill: #000000;text-anchor:middle;font-family:sans-serif;font-style:normal;font-weight:normal" x="183.35" y="42.8">
      <tspan x="183.35" y="42.8">Task</tspan>
    </text>
    <line style="fill: none; fill-opacity:0; stroke-width: 1; stroke: #000000" x1="170" y1="45.45" x2="196.7" y2="45.45"/>
  </g>
  <g>
    <rect style="fill: #ffffff" x="280" y="80" width="49.35" height="36"/>
    <rect style="fill: none; fill-opacity:0; stroke-width: 2; stroke: #000000" x="280" y="80" width="49.35" height="36"/>
    <text font-size="12.8" style="fill: #000000;text-anchor:middle;font-family:sans-serif;font-style:normal;font-weight:normal" x="304.675" y="102.8">
      <tspan x="304.675" y="102.8">Rung</tspan>
    </text>
    <line style="fill: none; fill-opacity:0; stroke-width: 1; stroke: #000000" x1="290" y1="105.45" x2="319.35" y2="105.45"/>
  </g>
  <g>
    <polyline style="fill: none; fill-opacity:0; stroke-width: 2; stroke: #000000" points="112.922,38 102.75,38 159,38 160,38 "/>
    <polygon style="fill: #ffffff" points="87.75,38 101.75,33.2 115.75,38 101.75,42.8 "/>
    <polygon style="fill: none; fill-opacity:0; stroke-width: 2; stroke: #000000" points="87.75,38 101.75,33.2 115.75,38 101.75,42.8 "/>
    <text font-size="12.7998" style="fill: #000000;text-anchor:middle;font-family:monospace;font-style:normal;font-weight:normal" x="130.875" y="34"></text>
    <text font-size="12.7998" style="fill: #000000;text-anchor:start;font-family:monospace;font-style:normal;font-weight:normal" x="119.75" y="34">0</text>
    <text font-size="12.7998" style="fill: #000000;text-anchor:end;font-family:monospace;font-style:normal;font-weight:normal" x="156" y="34">*</text>
  </g>
  <g>
    <rect style="fill: #ffffff" x="20" y="280" width="115.35" height="36"/>
    <rect style="fill: none; fill-opacity:0; stroke-width: 2; stroke: #000000" x="20" y="280" width="115.35" height="36"/>
    <text font-size="12.8" style="fill: #000000;text-anchor:middle;font-family:sans-serif;font-style:normal;font-weight:normal" x="77.675" y="302.8">
      <tspan x="77.675" y="302.8">NamedArgument</tspan>
    </text>
    <line style="fill: none; fill-opacity:0; stroke-width: 1; stroke: #000000" x1="30" y1="305.45" x2="125.35" y2="305.45"/>
  </g>
  <g>
    <polyline style="fill: none; fill-opacity:0; stroke-width: 2; stroke: #000000" points="231.872,38 221.7,38 279,38 280,38 "/>
    <polygon style="fill: #ffffff" points="206.7,38 220.7,33.2 234.7,38 220.7,42.8 "/>
    <polygon style="fill: none; fill-opacity:0; stroke-width: 2; stroke: #000000" points="206.7,38 220.7,33.2 234.7,38 220.7,42.8 "/>
    <text font-size="12.7998" style="fill: #000000;text-anchor:middle;font-family:monospace;font-style:normal;font-weight:normal" x="250.35" y="34"></text>
    <text font-size="12.7998" style="fill: #000000;text-anchor:start;font-family:monospace;font-style:normal;font-weight:normal" x="238.7" y="34">0</text>
    <text font-size="12.7998" style="fill: #000000;text-anchor:end;font-family:monospace;font-style:normal;font-weight:normal" x="276" y="34">*</text>
  </g>
  <g>
    <rect style="fill: #ffffff" x="400" y="80" width="40.55" height="36"/>
    <rect style="fill: none; fill-opacity:0; stroke-width: 2; stroke: #000000" x="400" y="80" width="40.55" height="36"/>
    <text font-size="12.8" style="fill: #000000;text-anchor:middle;font-family:sans-serif;font-style:normal;font-weight:normal" x="420.275" y="102.8">
      <tspan x="420.275" y="102.8">Coil</tspan>
    </text>
    <line style="fill: none; fill-opacity:0; stroke-width: 1; stroke: #000000" x1="410" y1="105.45" x2="430.55" y2="105.45"/>
  </g>
  <g>
    <rect style="fill: #ffffff" x="400" y="140" width="49.6" height="36"/>
    <rect style="fill: none; fill-opacity:0; stroke-width: 2; stroke: #000000" x="400" y="140" width="49.6" height="36"/>
    <text font-size="12.8" style="fill: #000000;text-anchor:middle;font-family:sans-serif;font-style:normal;font-weight:normal" x="424.8" y="162.8">
      <tspan x="424.8" y="162.8">Term</tspan>
    </text>
    <line style="fill: none; fill-opacity:0; stroke-width: 1; stroke: #000000" x1="410" y1="165.45" x2="439.6" y2="165.45"/>
  </g>
  <g>
    <polyline style="fill: none; fill-opacity:0; stroke-width: 2; stroke: #000000" points="354.522,98 344.35,98 399,98 400,98 "/>
    <polygon style="fill: #ffffff" points="329.35,98 343.35,93.2 357.35,98 343.35,102.8 "/>
    <polygon style="fill: none; fill-opacity:0; stroke-width: 2; stroke: #000000" points="329.35,98 343.35,93.2 357.35,98 343.35,102.8 "/>
    <text font-size="12.7998" style="fill: #000000;text-anchor:middle;font-family:monospace;font-style:normal;font-weight:normal" x="371.675" y="94"></text>
    <text font-size="12.7998" style="fill: #000000;text-anchor:start;font-family:monospace;font-style:normal;font-weight:normal" x="361.35" y="94">1</text>
    <text font-size="12.7998" style="fill: #000000;text-anchor:end;font-family:monospace;font-style:normal;font-weight:normal" x="396" y="94">1</text>
  </g>
  <g>
    <polyline style="fill: none; fill-opacity:0; stroke-width: 2; stroke: #000000" points="304.675,141.172 304.675,158 400,158 "/>
    <polygon style="fill: #ffffff" points="304.675,116 309.475,130 304.675,144 299.875,130 "/>
    <polygon style="fill: none; fill-opacity:0; stroke-width: 2; stroke: #000000" points="304.675,116 309.475,130 304.675,144 299.875,130 "/>
    <text font-size="12.7998" style="fill: #000000;text-anchor:middle;font-family:monospace;font-style:normal;font-weight:normal" x="352.337" y="154"></text>
    <text font-size="12.7998" style="fill: #000000;text-anchor:start;font-family:monospace;font-style:normal;font-weight:normal" x="315.675" y="128">1</text>
    <text font-size="12.7998" style="fill: #000000;text-anchor:end;font-family:monospace;font-style:normal;font-weight:normal" x="396" y="154">*</text>
  </g>
  <g>
    <rect style="fill: #ffffff" x="560" y="80" width="94.25" height="36"/>
    <rect style="fill: none; fill-opacity:0; stroke-width: 2; stroke: #000000" x="560" y="80" width="94.25" height="36"/>
    <text font-size="12.8" style="fill: #000000;text-anchor:middle;font-family:sans-serif;font-style:normal;font-weight:normal" x="607.125" y="102.8">
      <tspan x="607.125" y="102.8">AddressTerm</tspan>
    </text>
    <line style="fill: none; fill-opacity:0; stroke-width: 1; stroke: #000000" x1="570" y1="105.45" x2="644.25" y2="105.45"/>
  </g>
  <g>
    <polyline style="fill: none; fill-opacity:0; stroke-width: 2; stroke: #000000" points="467.836,158 512.8,158 512.8,98 560,98 "/>
    <polygon style="fill: #ffffff" points="467.836,150 451.836,158 467.836,166 "/>
    <polygon style="fill: none; fill-opacity:0; stroke-width: 2; stroke: #000000" points="467.836,150 451.836,158 467.836,166 "/>
  </g>
  <g>
    <rect style="fill: #ffffff" x="560" y="140" width="99.65" height="36"/>
    <rect style="fill: none; fill-opacity:0; stroke-width: 2; stroke: #000000" x="560" y="140" width="99.65" height="36"/>
    <text font-size="12.8" style="fill: #000000;text-anchor:middle;font-family:sans-serif;font-style:normal;font-weight:normal" x="609.825" y="162.8">
      <tspan x="609.825" y="162.8">OperatorTerm</tspan>
    </text>
    <line style="fill: none; fill-opacity:0; stroke-width: 1; stroke: #000000" x1="570" y1="165.45" x2="649.65" y2="165.45"/>
  </g>
  <g>
    <polyline style="fill: none; fill-opacity:0; stroke-width: 2; stroke: #000000" points="467.836,158 466.6,158 559,158 560,158 "/>
    <polygon style="fill: #ffffff" points="467.836,150 451.836,158 467.836,166 "/>
    <polygon style="fill: none; fill-opacity:0; stroke-width: 2; stroke: #000000" points="467.836,150 451.836,158 467.836,166 "/>
  </g>
  <g>
    <rect style="fill: #ffffff" x="560" y="200" width="131.4" height="36"/>
    <rect style="fill: none; fill-opacity:0; stroke-width: 2; stroke: #000000" x="560" y="200" width="131.4" height="36"/>
    <text font-size="12.8" style="fill: #000000;text-anchor:middle;font-family:sans-serif;font-style:normal;font-weight:normal" x="625.7" y="222.8">
      <tspan x="625.7" y="222.8">BoxInstructionTerm</tspan>
    </text>
    <line style="fill: none; fill-opacity:0; stroke-width: 1; stroke: #000000" x1="570" y1="225.45" x2="681.4" y2="225.45"/>
  </g>
  <g>
    <polyline style="fill: none; fill-opacity:0; stroke-width: 2; stroke: #000000" points="467.836,158 512.296,158 512.296,218 558.992,218 "/>
    <polygon style="fill: #ffffff" points="467.836,150 451.836,158 467.836,166 "/>
    <polygon style="fill: none; fill-opacity:0; stroke-width: 2; stroke: #000000" points="467.836,150 451.836,158 467.836,166 "/>
  </g>
  <g>
    <polyline style="fill: none; fill-opacity:0; stroke-width: 2; stroke: #000000" points="716.572,218 706.4,218 759,218 760,218 "/>
    <polygon style="fill: #ffffff" points="691.4,218 705.4,213.2 719.4,218 705.4,222.8 "/>
    <polygon style="fill: none; fill-opacity:0; stroke-width: 2; stroke: #000000" points="691.4,218 705.4,213.2 719.4,218 705.4,222.8 "/>
    <text font-size="12.7998" style="fill: #000000;text-anchor:middle;font-family:monospace;font-style:normal;font-weight:normal" x="732.7" y="214"></text>
    <text font-size="12.7998" style="fill: #000000;text-anchor:start;font-family:monospace;font-style:normal;font-weight:normal" x="723.4" y="214">0</text>
    <text font-size="12.7998" style="fill: #000000;text-anchor:end;font-family:monospace;font-style:normal;font-weight:normal" x="756" y="214">*</text>
  </g>
  <g>
    <rect style="fill: #ffffff" x="200" y="280" width="120.35" height="36"/>
    <rect style="fill: none; fill-opacity:0; stroke-width: 2; stroke: #000000" x="200" y="280" width="120.35" height="36"/>
    <text font-size="12.8" style="fill: #000000;text-anchor:middle;font-family:sans-serif;font-style:normal;font-weight:normal" x="260.175" y="302.8">
      <tspan x="260.175" y="302.8">AddressArgument</tspan>
    </text>
    <line style="fill: none; fill-opacity:0; stroke-width: 1; stroke: #000000" x1="210" y1="305.45" x2="310.35" y2="305.45"/>
  </g>
  <g>
    <rect style="fill: #ffffff" x="200" y="320" width="155.1" height="36"/>
    <rect style="fill: none; fill-opacity:0; stroke-width: 2; stroke: #000000" x="200" y="320" width="155.1" height="36"/>
    <text font-size="12.8" style="fill: #000000;text-anchor:middle;font-family:sans-serif;font-style:normal;font-weight:normal" x="277.55" y="342.8">
      <tspan x="277.55" y="342.8">BooleanLiteralArgument</tspan>
    </text>
    <line style="fill: none; fill-opacity:0; stroke-width: 1; stroke: #000000" x1="210" y1="345.45" x2="345.1" y2="345.45"/>
  </g>
  <g>
    <polyline style="fill: none; fill-opacity:0; stroke-width: 2; stroke: #000000" points="153.586,298 152.35,298 199,298 200,298 "/>
    <polygon style="fill: #ffffff" points="153.586,290 137.586,298 153.586,306 "/>
    <polygon style="fill: none; fill-opacity:0; stroke-width: 2; stroke: #000000" points="153.586,290 137.586,298 153.586,306 "/>
  </g>
  <g>
    <polyline style="fill: none; fill-opacity:0; stroke-width: 2; stroke: #000000" points="153.586,298 175.675,298 175.675,338 200,338 "/>
    <polygon style="fill: #ffffff" points="153.586,290 137.586,298 153.586,306 "/>
    <polygon style="fill: none; fill-opacity:0; stroke-width: 2; stroke: #000000" points="153.586,290 137.586,298 153.586,306 "/>
  </g>
  <g>
    <rect style="fill: #ffffff" x="200" y="400" width="134.45" height="36"/>
    <rect style="fill: none; fill-opacity:0; stroke-width: 2; stroke: #000000" x="200" y="400" width="134.45" height="36"/>
    <text font-size="12.8" style="fill: #000000;text-anchor:middle;font-family:sans-serif;font-style:normal;font-weight:normal" x="267.225" y="422.8">
      <tspan x="267.225" y="422.8">RealLiteralArgument</tspan>
    </text>
    <line style="fill: none; fill-opacity:0; stroke-width: 1; stroke: #000000" x1="210" y1="425.45" x2="324.45" y2="425.45"/>
  </g>
  <g>
    <rect style="fill: #ffffff" x="200" y="360" width="151.55" height="36"/>
    <rect style="fill: none; fill-opacity:0; stroke-width: 2; stroke: #000000" x="200" y="360" width="151.55" height="36"/>
    <text font-size="12.8" style="fill: #000000;text-anchor:middle;font-family:sans-serif;font-style:normal;font-weight:normal" x="275.775" y="382.8">
      <tspan x="275.775" y="382.8">IntegerLiteralArgument</tspan>
    </text>
    <line style="fill: none; fill-opacity:0; stroke-width: 1; stroke: #000000" x1="210" y1="385.45" x2="341.55" y2="385.45"/>
  </g>
  <g>
    <polyline style="fill: none; fill-opacity:0; stroke-width: 2; stroke: #000000" points="153.586,298 175.675,298 175.675,378 200,378 "/>
    <polygon style="fill: #ffffff" points="153.586,290 137.586,298 153.586,306 "/>
    <polygon style="fill: none; fill-opacity:0; stroke-width: 2; stroke: #000000" points="153.586,290 137.586,298 153.586,306 "/>
  </g>
  <g>
    <polyline style="fill: none; fill-opacity:0; stroke-width: 2; stroke: #000000" points="153.586,298 175.675,298 175.675,418 200,418 "/>
    <polygon style="fill: #ffffff" points="153.586,290 137.586,298 153.586,306 "/>
    <polygon style="fill: none; fill-opacity:0; stroke-width: 2; stroke: #000000" points="153.586,290 137.586,298 153.586,306 "/>
  </g>
  <g>
    <rect style="fill: #ffffff" x="200" y="440" width="142.35" height="36"/>
    <rect style="fill: none; fill-opacity:0; stroke-width: 2; stroke: #000000" x="200" y="440" width="142.35" height="36"/>
    <text font-size="12.7998" style="fill: #000000;text-anchor:middle;font-family:sans-serif;font-style:normal;font-weight:normal" x="271.175" y="462.8">
      <tspan x="271.175" y="462.8">EnumLiteralArgument</tspan>
    </text>
    <line style="fill: none; fill-opacity:0; stroke-width: 1; stroke: #000000" x1="210" y1="465.45" x2="332.35" y2="465.45"/>
  </g>
  <g>
    <polyline style="fill: none; fill-opacity:0; stroke-width: 2; stroke: #000000" points="153.586,298 175.675,298 175.675,458 200,458 "/>
    <polygon style="fill: #ffffff" points="153.586,290 137.586,298 153.586,306 "/>
    <polygon style="fill: none; fill-opacity:0; stroke-width: 2; stroke: #000000" points="153.586,290 137.586,298 153.586,306 "/>
  </g>
  <g>
    <rect style="fill: #ffffff" x="280" y="20" width="115.35" height="36"/>
    <rect style="fill: none; fill-opacity:0; stroke-width: 2; stroke: #000000" x="280" y="20" width="115.35" height="36"/>
    <text font-size="12.8" style="fill: #000000;text-anchor:middle;font-family:sans-serif;font-style:normal;font-weight:normal" x="337.675" y="42.8">
      <tspan x="337.675" y="42.8">NamedArgument</tspan>
    </text>
    <line style="fill: none; fill-opacity:0; stroke-width: 1; stroke: #000000" x1="290" y1="45.45" x2="385.35" y2="45.45"/>
  </g>
  <g>
    <rect style="fill: #ffffff" x="760" y="200" width="115.35" height="36"/>
    <rect style="fill: none; fill-opacity:0; stroke-width: 2; stroke: #000000" x="760" y="200" width="115.35" height="36"/>
    <text font-size="12.8" style="fill: #000000;text-anchor:middle;font-family:sans-serif;font-style:normal;font-weight:normal" x="817.675" y="222.8">
      <tspan x="817.675" y="222.8">NamedArgument</tspan>
    </text>
    <line style="fill: none; fill-opacity:0; stroke-width: 1; stroke: #000000" x1="770" y1="225.45" x2="865.35" y2="225.45"/>
  </g>
  <g>
    <polyline style="fill: none; fill-opacity:0; stroke-width: 2; stroke: #000000" points="183.35,81.1716 183.35,98 280,98 "/>
    <polygon style="fill: #ffffff" points="183.35,56 188.15,70 183.35,84 178.55,70 "/>
    <polygon style="fill: none; fill-opacity:0; stroke-width: 2; stroke: #000000" points="183.35,56 188.15,70 183.35,84 178.55,70 "/>
    <text font-size="12.7998" style="fill: #000000;text-anchor:start;font-family:monospace;font-style:normal;font-weight:normal" x="194.35" y="68">0</text>
    <text font-size="12.7998" style="fill: #000000;text-anchor:end;font-family:monospace;font-style:normal;font-weight:normal" x="276" y="94">*</text>
  </g>
</svg>
